<?xml version="1.0" encoding="UTF-8"?>
<svg id="Layer_1" data-name="Layer 1" xmlns="http://www.w3.org/2000/svg" width="1.6641in" height=".4019in" viewBox="0 0 119.8179 28.9369">
  <defs>
    <style>
      .cls-1, .cls-2 {
        fill: #26282a;
      }

      .cls-2 {
        font-family: TimesNewRomanPSMT, 'Times New Roman';
        font-size: 3.0572px;
      }

      .cls-3 {
        isolation: isolate;
      }

      .cls-4 {
        fill: #6c6f73;
      }

      .cls-5 {
        fill: none;
        stroke: #000;
        stroke-linecap: square;
        stroke-miterlimit: 10;
        stroke-width: .15px;
      }
    </style>
  </defs>
  <text class="cls-2" transform="translate(107.0907 13.0597)"><tspan x="0" y="0"> </tspan></text>
  <text class="cls-2" transform="translate(103.9794 21.9762)"><tspan x="0" y="0"> </tspan></text>
  <g>
    <g class="cls-3">
      <path class="cls-1" d="M12.1064,3.8842v7.0015h-.5522c-.1792-1.3438-.5-2.4136-.9629-3.2095-.4624-.7964-1.1221-1.4282-1.978-1.896s-1.7412-.7017-2.6567-.7017c-1.0352,0-1.8911.3159-2.5679.9478-.6768.6323-1.0151,1.3511-1.0151,2.1572,0,.6172.2139,1.1792.6421,1.687.6167.7461,2.0845,1.7417,4.4038,2.9854,1.8906,1.0151,3.1816,1.7939,3.8735,2.3364s1.2241,1.1816,1.5972,1.9185c.3735.7363.5601,1.5078.5601,2.3135,0,1.5322-.5947,2.8535-1.7837,3.9629-1.1895,1.1108-2.7197,1.6655-4.5903,1.6655-.5874,0-1.1396-.0449-1.6572-.1348-.3086-.0498-.9478-.2314-1.9185-.5449-.9702-.3135-1.5845-.4697-1.8433-.4697-.249,0-.4458.0742-.5898.2236-.1445.1494-.2515.458-.3208.9258H.1943v-6.9419h.5522c.2588,1.4531.6069,2.54,1.0449,3.2617s1.1069,1.3213,2.0078,1.7988c.9004.478,1.8882.7173,2.9634.7173,1.2437,0,2.2266-.3296,2.9482-.9858.7212-.6572,1.082-1.4336,1.082-2.3291,0-.4971-.1367-1-.4106-1.5078s-.6992-.9805-1.2764-1.418c-.3882-.2988-1.4478-.9326-3.1797-1.9033-1.7314-.9702-2.9629-1.7441-3.6943-2.3213s-1.2866-1.2139-1.6646-1.9106c-.3784-.6968-.5674-1.4629-.5674-2.2988,0-1.4531.5571-2.7046,1.6719-3.7544,1.1147-1.0503,2.5327-1.5752,4.2544-1.5752,1.0752,0,2.2144.2637,3.4189.7915.5571.2485.9502.373,1.1792.373.2583,0,.4702-.0771.6343-.2314s.2959-.4653.3955-.9331h.5522Z"/>
      <path class="cls-1" d="M21.8511,15.1103v5.896c0,1.2744.1396,2.0654.418,2.374.3784.438.9507.6567,1.7168.6567h.7764v.5527h-8.6733v-.5527h.7617c.8555,0,1.4678-.2783,1.8359-.8364.1992-.3076.2983-1.0391.2983-2.1943V7.9296c0-1.2734-.1343-2.0649-.4028-2.3735-.3882-.4375-.9653-.6567-1.7314-.6567h-.7617v-.5522h7.4194c1.811,0,3.2393.1865,4.2842.5596,1.0449.3735,1.9258,1.0029,2.6421,1.8887.7168.8857,1.0752,1.9355,1.0752,3.1499,0,1.6519-.5449,2.9956-1.6348,4.0303-1.0898,1.0352-2.6299,1.5527-4.6201,1.5527-.4878,0-1.0151-.0352-1.5825-.1045-.5674-.0698-1.1743-.1743-1.8213-.3135ZM21.8511,14.2592c.5273.0996.9951.1743,1.4033.2241s.7563.0742,1.0449.0742c1.0352,0,1.9282-.4004,2.6797-1.2017.7515-.8008,1.127-1.8384,1.127-3.1123,0-.8755-.1792-1.689-.5371-2.4409-.3584-.751-.8662-1.3135-1.5229-1.6865-.6567-.3735-1.4033-.5601-2.2393-.5601-.5073,0-1.1592.0947-1.9556.2837v8.4194Z"/>
      <path class="cls-1" d="M42.5078,24.0371v.5527h-8.6733v-.5527h.7168c.8359,0,1.4429-.2432,1.8208-.7319.2393-.3184.3584-1.084.3584-2.2988V7.9296c0-1.0249-.0649-1.7017-.1938-2.0303-.0996-.2485-.3037-.4624-.6123-.6416-.438-.2388-.8955-.3584-1.373-.3584h-.7168v-.5522h8.6733v.5522h-.7314c-.8262,0-1.4282.2441-1.8066.7314-.2485.3188-.373,1.085-.373,2.2988v13.0767c0,1.0254.0645,1.7021.1943,2.0303.0991.249.3081.4629.627.6431.4277.2383.8804.3574,1.3584.3574h.7314Z"/>
    </g>
    <g class="cls-3">
      <path class="cls-1" d="M63.9888,4.3413l.0332,1.3496h-.1221c-.0586-.3384-.2002-.6104-.4258-.8164s-.4707-.3091-.7334-.3091c-.2031,0-.3633.0542-.4814.1626-.1191.1084-.1777.2334-.1777.3745,0,.0898.0205.1694.0625.2393.0576.0933.1504.186.2773.2773.0938.0659.3096.1821.6484.3496.4736.2329.793.4526.958.6597.1631.207.2451.4438.2451.7104,0,.3384-.1318.6294-.3955.8735-.2637.2437-.5986.3657-1.0049.3657-.1279,0-.248-.0132-.3613-.0391s-.2559-.0747-.4268-.146c-.0957-.04-.1748-.0601-.2363-.0601-.0518,0-.1064.02-.1641.0601-.0576.0396-.1045.1001-.1406.1821h-.1104v-1.5288h.1104c.0879.4297.2568.7578.5068.9839.249.2256.5186.3389.8076.3389.2227,0,.4004-.061.5322-.1821.1328-.1216.1992-.2627.1992-.4243,0-.0952-.0254-.188-.0762-.2773-.0508-.0898-.1279-.1748-.2314-.2554s-.2871-.1855-.5498-.3149c-.3682-.1812-.6328-.3354-.7939-.4629s-.2852-.2695-.3721-.4268c-.0859-.1572-.1299-.3306-.1299-.5195,0-.3223.1191-.5972.3555-.8242.2373-.2266.5352-.3403.8955-.3403.1318,0,.2588.0161.3828.0479.0928.0239.207.0684.3418.1328.1338.0649.2285.0972.2822.0972.0518,0,.0918-.0161.1221-.0479s.0576-.1084.084-.23h.0889Z"/>
      <path class="cls-1" d="M67.1841,7.33h-1.4307l-.1699.394c-.0557.1313-.084.2397-.084.3252,0,.1138.0459.1973.1377.251.0537.0317.1855.0557.3965.0718v.1104h-1.3457v-.1104c.1445-.022.2646-.082.3584-.1807.0928-.0986.209-.3022.3457-.6108l1.4482-3.23h.0566l1.46,3.3198c.1396.3145.2539.5127.3438.5942.0674.0615.1631.0972.2861.1074v.1104h-1.958v-.1104h.0801c.1572,0,.2676-.022.3311-.0659.0439-.0317.0664-.0776.0664-.1372,0-.0356-.0059-.0728-.0186-.1104-.0039-.0181-.0332-.0928-.0889-.2241l-.2148-.5044ZM67.0825,7.1088l-.6035-1.394-.6211,1.394h1.2246Z"/>
      <path class="cls-1" d="M70.7007,4.434l1.9961,2.5107v-1.7407c0-.2427-.0332-.4067-.1035-.4927-.0957-.1152-.2559-.1709-.4805-.167v-.1104h1.3379v.1104c-.1719.022-.2871.0503-.3457.085-.0586.0352-.1035.0918-.1367.1704s-.0488.2134-.0488.4043v3.3711h-.1016l-2.7383-3.3711v2.5737c0,.2329.0527.3901.1602.4717.1055.0815.2275.1226.3652.1226h.0957v.1104h-1.4365v-.1104c.2227-.002.3779-.0479.4658-.1377.0879-.0894.1309-.2417.1309-.4565v-2.8574l-.0859-.1074c-.0859-.1074-.1611-.1777-.2275-.2119-.0654-.0337-.1602-.0527-.2832-.0566v-.1104h1.4365Z"/>
      <path class="cls-1" d="M77.0181,6.6494v1.1226c0,.2188.0127.3564.04.4136.0264.0566.0742.1021.1436.1357.0684.0337.1943.0508.377.0508v.1104h-2.0566v-.1104c.1875,0,.3135-.0176.3809-.0522.0664-.0352.1133-.0801.1396-.1357.0273-.0562.041-.1934.041-.4121v-2.6274c0-.2188-.0137-.3569-.041-.4136-.0264-.0566-.0732-.1021-.1416-.1357-.0674-.0337-.1934-.0508-.3789-.0508v-.1104h1.7646c.5811,0,.998.1035,1.251.3105s.3789.4658.3789.7759c0,.2632-.082.4878-.2451.6748-.1631.1875-.3877.3145-.6748.3823-.1924.0479-.5195.0718-.9785.0718ZM77.0181,4.6669v1.7495c.0654.0039.1152.0059.1494.0059.2422,0,.4297-.0723.5605-.2163.1318-.1445.1973-.3677.1973-.6704,0-.3003-.0654-.5205-.1973-.6597-.1309-.1396-.3271-.209-.5879-.209h-.1221Z"/>
      <path class="cls-1" d="M81.314,7.33h-1.4307l-.1699.394c-.0557.1313-.084.2397-.084.3252,0,.1138.0459.1973.1377.251.0537.0317.1865.0557.3975.0718v.1104h-1.3467v-.1104c.1455-.022.2646-.082.3584-.1807s.209-.3022.3457-.6108l1.4482-3.23h.0566l1.46,3.3198c.1396.3145.2539.5127.3438.5942.0674.0615.1631.0972.2861.1074v.1104h-1.958v-.1104h.0801c.1572,0,.2676-.022.332-.0659.043-.0317.0654-.0776.0654-.1372,0-.0356-.0059-.0728-.0176-.1104-.0049-.0181-.0342-.0928-.0898-.2241l-.2148-.5044ZM81.2124,7.1088l-.6035-1.394-.6211,1.394h1.2246Z"/>
      <path class="cls-1" d="M87.3892,4.3413v1.4033h-.1162c-.0879-.3662-.251-.647-.4893-.8418-.2393-.1953-.5098-.2925-.8125-.2925-.2529,0-.4844.0723-.6953.2178s-.3652.3354-.4629.5703c-.126.3003-.1885.6348-.1885,1.0029,0,.3623.0459.6924.1377.9897.0918.2979.2344.5225.4297.6748s.4482.2285.7588.2285c.2549,0,.4883-.0557.7002-.1675.2119-.1113.4346-.3032.6699-.5762v.3496c-.2266.2368-.4629.4082-.709.5146s-.5332.1602-.8613.1602c-.4316,0-.8154-.0869-1.1514-.2598-.335-.1733-.5938-.4224-.7764-.7466-.1816-.3242-.2725-.6699-.2725-1.0361,0-.3862.1006-.7524.3027-1.0986s.4746-.6147.8184-.8062c.3428-.1909.708-.2866,1.0938-.2866.2852,0,.585.062.9014.1851.1836.0718.2998.1074.3496.1074.0635,0,.1191-.0229.166-.0698s.0771-.1211.0908-.2227h.1162Z"/>
      <path class="cls-1" d="M90.0854,8.372v.1104h-2.1172v-.1104h.1348c.1172,0,.2119-.021.2832-.063.0518-.0278.0918-.0757.1201-.1431.0215-.0479.0322-.1733.0322-.3765v-2.6631c0-.207-.0107-.3359-.0322-.3882-.0225-.0513-.0664-.0967-.1328-.1357-.0674-.0386-.1572-.0581-.2705-.0581h-.1348v-.1104h2.1172v.1104h-.1348c-.1172,0-.2119.021-.2832.0625-.0518.0283-.0928.0757-.1221.1436-.0225.0479-.0332.1733-.0332.376v2.6631c0,.207.0117.3364.0342.3882s.0674.0972.1348.1362c.0664.0386.1562.0581.2695.0581h.1348Z"/>
      <path class="cls-1" d="M92.0288,4.6669v1.6626h.1162c.1797,0,.3262-.0269.4395-.0806s.209-.144.2881-.2715c.0781-.1274.1299-.2993.1533-.5166h.1045v2.0332h-.1045c-.0371-.3843-.1406-.6372-.3086-.7598s-.3584-.1836-.5723-.1836h-.1162v1.2388c0,.207.0117.3364.0342.3882.0234.0518.0684.0972.1348.1362.0664.0386.1562.0581.2705.0581h.1338v.1104h-2.1162v-.1104h.1338c.1172,0,.2119-.021.2842-.063.0518-.0278.0908-.0757.1191-.1431.0215-.0479.0332-.1733.0332-.3765v-2.6631c0-.207-.0117-.3359-.0332-.3882-.0225-.0513-.0664-.0967-.1328-.1357-.0664-.0386-.1572-.0581-.2705-.0581h-.1338v-.1104h3.415v1.1611h-.1221c-.0283-.2725-.0996-.4746-.2139-.606s-.2803-.2241-.4971-.2778c-.1191-.0298-.3398-.0444-.6631-.0444h-.376Z"/>
      <path class="cls-1" d="M96.4448,8.372v.1104h-2.1172v-.1104h.1348c.1172,0,.2119-.021.2832-.063.0518-.0278.0918-.0757.1201-.1431.0215-.0479.0322-.1733.0322-.3765v-2.6631c0-.207-.0107-.3359-.0322-.3882-.0225-.0513-.0664-.0967-.1328-.1357-.0674-.0386-.1572-.0581-.2705-.0581h-.1348v-.1104h2.1172v.1104h-.1348c-.1172,0-.2119.021-.2832.0625-.0518.0283-.0928.0757-.1221.1436-.0225.0479-.0332.1733-.0332.376v2.6631c0,.207.0117.3364.0342.3882s.0674.0972.1348.1362c.0664.0386.1562.0581.2695.0581h.1348Z"/>
      <path class="cls-1" d="M100.7876,4.3413v1.4033h-.1162c-.0879-.3662-.251-.647-.4893-.8418-.2393-.1953-.5098-.2925-.8125-.2925-.2529,0-.4844.0723-.6953.2178s-.3652.3354-.4629.5703c-.126.3003-.1885.6348-.1885,1.0029,0,.3623.0459.6924.1377.9897.0918.2979.2344.5225.4297.6748s.4482.2285.7588.2285c.2549,0,.4883-.0557.7002-.1675.2119-.1113.4346-.3032.6699-.5762v.3496c-.2266.2368-.4629.4082-.709.5146s-.5332.1602-.8613.1602c-.4316,0-.8154-.0869-1.1514-.2598-.335-.1733-.5938-.4224-.7764-.7466-.1816-.3242-.2725-.6699-.2725-1.0361,0-.3862.1006-.7524.3027-1.0986s.4746-.6147.8184-.8062c.3428-.1909.708-.2866,1.0938-.2866.2852,0,.585.062.9014.1851.1836.0718.2998.1074.3496.1074.0635,0,.1191-.0229.166-.0698s.0771-.1211.0908-.2227h.1162Z"/>
      <path class="cls-1" d="M105.1353,8.372v.1104h-2.1172v-.1104h.1348c.1172,0,.2119-.021.2832-.063.0518-.0278.0918-.0757.1201-.1431.0215-.0479.0322-.1733.0322-.3765v-2.6631c0-.207-.0107-.3359-.0322-.3882-.0225-.0513-.0664-.0967-.1328-.1357-.0674-.0386-.1572-.0581-.2705-.0581h-.1348v-.1104h2.1172v.1104h-.1348c-.1172,0-.2119.021-.2832.0625-.0518.0283-.0928.0757-.1221.1436-.0225.0479-.0332.1733-.0332.376v2.6631c0,.207.0117.3364.0342.3882s.0674.0972.1348.1362c.0664.0386.1562.0581.2695.0581h.1348Z"/>
      <path class="cls-1" d="M106.9204,4.434l1.9971,2.5107v-1.7407c0-.2427-.0342-.4067-.1045-.4927-.0947-.1152-.2549-.1709-.4805-.167v-.1104h1.3379v.1104c-.1709.022-.2861.0503-.3447.085-.0586.0352-.1045.0918-.1377.1704-.0322.0786-.0488.2134-.0488.4043v3.3711h-.1016l-2.7383-3.3711v2.5737c0,.2329.0537.3901.1602.4717s.2285.1226.3652.1226h.0957v.1104h-1.4355v-.1104c.2227-.002.3779-.0479.4658-.1377.0869-.0894.1309-.2417.1309-.4565v-2.8574l-.0869-.1074c-.085-.1074-.1611-.1777-.2266-.2119-.0654-.0337-.1602-.0527-.2832-.0566v-.1104h1.4355Z"/>
      <path class="cls-1" d="M113.7925,4.434v1.0957h-.1074c-.0635-.2529-.1348-.4346-.2119-.5449-.0781-.1104-.1846-.1987-.3193-.2642-.0762-.0361-.208-.0537-.3975-.0537h-.3018v3.1226c0,.207.0117.3364.0342.3882.0234.0518.0684.0972.1348.1362.0664.0386.1582.0581.2734.0581h.1338v.1104h-2.1191v-.1104h.1338c.1182,0,.2119-.021.2842-.063.0518-.0278.0928-.0757.1221-.1431.0215-.0479.0332-.1733.0332-.3765v-3.1226h-.293c-.2725,0-.4707.0576-.5938.1729-.1738.1616-.2832.3911-.3291.6899h-.1133v-1.0957h3.6367Z"/>
      <path class="cls-1" d="M115.0708,6.3266h-.1436l-.3135-1.1401c-.04-.1416-.0596-.272-.0596-.3911,0-.1294.042-.2373.127-.3242.085-.0864.1885-.1299.3115-.1299.1416,0,.251.0459.3271.1377.0771.0913.1152.1909.1152.2983,0,.0894-.0234.2251-.0684.4062l-.2959,1.1431Z"/>
      <path class="cls-1" d="M119.8179,7.0615l-.1523,1.4209h-3.5947v-.1104h.1348c.1172,0,.2119-.021.2832-.063.0518-.0278.0918-.0757.1191-.1431.0225-.0479.0332-.1733.0332-.3765v-2.6631c0-.207-.0107-.3359-.0332-.3882-.0215-.0513-.0654-.0967-.1328-.1357-.0664-.0386-.1562-.0581-.2695-.0581h-.1348v-.1104h2.1592v.1104h-.1768c-.1172,0-.2119.021-.2832.0625-.0518.0283-.0928.0757-.123.1436-.0215.0479-.0322.1733-.0322.376v2.5796c0,.207.0117.3389.0352.3955.0244.0571.0713.0991.1406.127.0498.0181.1699.0269.3613.0269h.3379c.2148,0,.3936-.0376.5371-.1133s.2666-.1948.3711-.3584c.1045-.1631.2041-.4038.2979-.7222h.1221Z"/>
    </g>
    <g class="cls-3">
      <path class="cls-1" d="M61.1548,16.9565l.2988-1.3442h.0908c-.0127.1304-.0186.2378-.0186.3232,0,.2441.0781.4429.2334.5962.1562.1528.3594.2295.6104.2295.2334,0,.4111-.0718.5322-.2148.1211-.1436.1816-.3086.1816-.4956,0-.1211-.0283-.2319-.083-.3315-.084-.1479-.3076-.4077-.6709-.7803-.1758-.1777-.29-.3105-.3389-.3979-.082-.144-.123-.2954-.123-.4541,0-.2529.0938-.4692.2832-.6494.1885-.1797.4307-.27.7266-.27.0996,0,.1943.0103.2832.0298.0557.0107.1562.0464.3018.1069.1035.0405.1602.063.1709.0664.0254.0054.0527.0083.083.0083.0518,0,.0967-.0137.1338-.04.0371-.0269.0811-.084.1309-.1714h.1016l-.2783,1.2026h-.0908c.0078-.1069.0107-.1934.0107-.2593,0-.2153-.0713-.3916-.2139-.5288s-.3301-.2061-.5635-.2061c-.1855,0-.3359.0547-.4512.1631-.1162.1089-.1738.2344-.1738.377,0,.1245.0371.2432.1104.3564.0742.1133.2441.2974.5107.5532.2666.2554.4385.4551.5166.5981.0791.1436.1182.2964.1182.4585,0,.1836-.0488.3613-.1455.5332-.0977.1719-.2363.3047-.418.3994-.1826.0942-.3809.1416-.5967.1416-.1064,0-.2061-.0098-.2988-.0298-.0928-.0195-.2402-.0674-.4434-.144-.0693-.0269-.127-.04-.1738-.04-.1045,0-.1865.0713-.2451.2139h-.1016Z"/>
      <path class="cls-1" d="M66.4204,14.4555l-.5205,1.8115-.0586.2432c-.0059.0229-.0088.0425-.0088.0586,0,.0288.0088.0537.0273.0747.0137.0161.0322.0244.0527.0244.0234,0,.0537-.0142.0908-.043.0703-.0518.1621-.1587.2783-.3208l.0908.0645c-.123.1851-.249.3262-.3789.4233-.1309.0972-.251.1455-.3613.1455-.0762,0-.1338-.019-.1719-.0571-.0391-.0386-.0576-.0942-.0576-.167,0-.0874.0195-.2021.0586-.3447l.0566-.2007c-.2334.3047-.4482.5176-.6445.6387-.1406.0874-.2783.1309-.4141.1309-.1299,0-.2422-.0537-.3369-.1616-.0938-.1074-.1416-.2559-.1416-.4448,0-.2832.085-.582.2559-.8965.1699-.314.3857-.5659.6475-.7544.2051-.1499.3984-.2246.5801-.2246.1084,0,.1992.0283.2705.0854.0723.0571.127.1514.165.2832l.0957-.3047.4248-.064ZM65.4692,14.5942c-.1133,0-.2354.0537-.3633.1606-.1816.1514-.3428.376-.4844.6733s-.2129.5664-.2129.8066c0,.1211.0303.2168.0908.2871.0605.0708.1299.106.209.106.1934,0,.4043-.1436.6328-.4302.3047-.3813.457-.7725.457-1.1733,0-.1514-.0293-.2607-.0889-.3286-.0586-.0674-.1387-.1016-.2402-.1016Z"/>
      <path class="cls-1" d="M67.7964,14.4555l-.3555,1.2158c.333-.4971.5879-.8242.7656-.981.1768-.1567.3477-.2349.5117-.2349.0889,0,.1621.0293.2197.0879.0586.0591.0869.1357.0869.23,0,.1069-.0254.2495-.0771.4277l-.3262,1.1245c-.0371.1304-.0557.2095-.0557.2378,0,.0249.0068.0459.0205.063.0146.0171.0303.0254.0459.0254.0215,0,.0469-.0117.0771-.0347.0947-.0752.1982-.189.3105-.3423l.083.0508c-.166.2368-.3232.4062-.4707.5078-.1035.0693-.1963.104-.2783.104-.0654,0-.1182-.02-.1572-.0601s-.0586-.0938-.0586-.1616c0-.0854.0303-.2324.0908-.4409l.3096-1.0737c.0391-.1338.0586-.2378.0586-.313,0-.0356-.0107-.0645-.0342-.0864-.0234-.0225-.0518-.0337-.0859-.0337-.0498,0-.1094.0215-.1787.064-.1318.0806-.2686.2124-.4111.397s-.293.4199-.4521.7065c-.083.1514-.1533.3174-.208.4971l-.1338.4409h-.4004l.4863-1.6724c.0566-.2017.085-.3228.085-.3638,0-.0391-.0156-.0732-.0469-.1025s-.0693-.0444-.1162-.0444c-.0215,0-.0586.0039-.1123.0107l-.1016.0161-.0156-.0962.9248-.1655Z"/>
      <path class="cls-1" d="M72.4722,13.4428l-.4277,1.4346h.4756c.2139,0,.374-.0327.4805-.0986.1055-.0659.2148-.2065.3271-.4224h.1016l-.377,1.3203h-.1074c.0273-.1069.04-.1953.04-.2646,0-.1089-.0352-.1929-.1074-.2524s-.207-.0898-.4053-.0898h-.4805l-.3154,1.0928c-.0576.1943-.0859.3237-.0859.3877,0,.0659.0244.1167.0742.1523.0488.0356.168.0596.3594.0723l-.0322.0986h-1.4326l.0352-.0986c.1387-.0039.2314-.0161.2773-.0376.0713-.0303.124-.0713.1582-.123.0479-.0728.1045-.2236.1709-.4517l.6387-2.1826c.0518-.1763.0771-.3145.0771-.4141,0-.0464-.0117-.0859-.0342-.1191-.0234-.0327-.0576-.0571-.1035-.0732-.0449-.0161-.1357-.0239-.2715-.0239l.0322-.0991h2.8115l-.2676.9165h-.1016c.0195-.1104.0293-.2012.0293-.2725,0-.1177-.0322-.2109-.0977-.2793-.0645-.0684-.1484-.1172-.25-.1455-.0713-.0181-.2305-.0269-.4775-.0269h-.7139Z"/>
      <path class="cls-1" d="M74.3208,14.6049l.9219-.1494-.3848,1.2983c.3115-.5322.5947-.9048.8496-1.1167.1436-.1211.2617-.1816.3525-.1816.0586,0,.1045.0171.1387.0522.0342.0347.0508.085.0508.1509,0,.1177-.0303.2295-.0908.3364-.043.0801-.1045.1201-.1846.1201-.041,0-.0762-.0132-.1055-.04-.0293-.0264-.0479-.0674-.0547-.1226-.0039-.0342-.0117-.0562-.0234-.0669-.0146-.0142-.0312-.0215-.0508-.0215-.0303,0-.0596.0073-.0859.0215-.0459.0249-.1162.0942-.2109.2085-.1484.1743-.3086.4004-.4814.6787-.0742.1172-.1387.25-.1924.3979-.0742.2031-.1172.3252-.1279.3662l-.085.3364h-.4092l.4941-1.6592c.0566-.1924.0859-.3296.0859-.4116,0-.0317-.0137-.0586-.04-.0801-.0361-.0283-.083-.0425-.1416-.0425-.0381,0-.1064.0078-.2061.0239l-.0186-.0991Z"/>
      <path class="cls-1" d="M78.7319,14.4555l-.5205,1.8115-.0586.2432c-.0059.0229-.0088.0425-.0088.0586,0,.0288.0088.0537.0273.0747.0137.0161.0322.0244.0527.0244.0234,0,.0537-.0142.0908-.043.0703-.0518.1621-.1587.2783-.3208l.0908.0645c-.123.1851-.249.3262-.3789.4233-.1309.0972-.251.1455-.3613.1455-.0762,0-.1338-.019-.1719-.0571-.0391-.0386-.0576-.0942-.0576-.167,0-.0874.0195-.2021.0586-.3447l.0566-.2007c-.2334.3047-.4482.5176-.6445.6387-.1406.0874-.2783.1309-.4141.1309-.1299,0-.2422-.0537-.3369-.1616-.0938-.1074-.1416-.2559-.1416-.4448,0-.2832.085-.582.2559-.8965.1699-.314.3857-.5659.6475-.7544.2051-.1499.3984-.2246.5801-.2246.1084,0,.1992.0283.2705.0854.0723.0571.127.1514.165.2832l.0957-.3047.4248-.064ZM77.7808,14.5942c-.1133,0-.2354.0537-.3633.1606-.1816.1514-.3428.376-.4844.6733s-.2129.5664-.2129.8066c0,.1211.0303.2168.0908.2871.0605.0708.1299.106.209.106.1934,0,.4043-.1436.6328-.4302.3047-.3813.457-.7725.457-1.1733,0-.1514-.0293-.2607-.0889-.3286-.0586-.0674-.1387-.1016-.2402-.1016Z"/>
      <path class="cls-1" d="M80.1089,14.4555l-.3555,1.2158c.333-.4971.5879-.8242.7656-.981.1768-.1567.3477-.2349.5117-.2349.0889,0,.1621.0293.2197.0879.0586.0591.0869.1357.0869.23,0,.1069-.0254.2495-.0771.4277l-.3262,1.1245c-.0371.1304-.0557.2095-.0557.2378,0,.0249.0068.0459.0205.063.0146.0171.0303.0254.0459.0254.0215,0,.0469-.0117.0771-.0347.0947-.0752.1982-.189.3105-.3423l.083.0508c-.166.2368-.3232.4062-.4707.5078-.1035.0693-.1963.104-.2783.104-.0654,0-.1182-.02-.1572-.0601s-.0586-.0938-.0586-.1616c0-.0854.0303-.2324.0908-.4409l.3096-1.0737c.0391-.1338.0586-.2378.0586-.313,0-.0356-.0107-.0645-.0342-.0864-.0234-.0225-.0518-.0337-.0859-.0337-.0498,0-.1094.0215-.1787.064-.1318.0806-.2686.2124-.4111.397s-.293.4199-.4521.7065c-.083.1514-.1533.3174-.208.4971l-.1338.4409h-.4004l.4863-1.6724c.0566-.2017.085-.3228.085-.3638,0-.0391-.0156-.0732-.0469-.1025s-.0693-.0444-.1162-.0444c-.0215,0-.0586.0039-.1123.0107l-.1016.0161-.0156-.0962.9248-.1655Z"/>
      <path class="cls-1" d="M83.7495,16.291c-.1855.2227-.3721.3862-.5605.4902-.1895.1045-.3887.1562-.5986.1562-.2529,0-.4502-.0713-.5918-.2134-.1416-.1426-.2129-.334-.2129-.5747,0-.2725.0762-.5405.2285-.8042s.3574-.4775.6143-.6426c.2578-.1646.5107-.2471.7578-.2471.1943,0,.3398.0405.4355.1216.0967.0811.1445.1802.1445.2979,0,.1104-.0342.2051-.1016.2832-.0498.0605-.1113.0908-.1846.0908-.0557,0-.1016-.0176-.1377-.0532s-.0547-.0806-.0547-.1338c0-.0337.0068-.0649.0205-.0933.0127-.0288.04-.063.082-.103s.0674-.0688.0762-.0869c.0088-.0176.0137-.0366.0137-.0562,0-.0376-.0166-.0684-.0508-.0933-.0518-.0356-.125-.0537-.2188-.0537-.1748,0-.3477.0615-.5186.1846-.1709.1226-.3174.2974-.4385.5234-.1455.2744-.2188.5488-.2188.8232,0,.1816.0518.3252.1553.4312.1025.106.2432.1592.4219.1592.1367,0,.2725-.0342.4072-.103.1348-.0684.2852-.1929.4531-.3726l.0771.0693Z"/>
      <path class="cls-1" d="M85.3237,14.4555l-.5293,1.873c-.0361.1265-.0537.2021-.0537.2271,0,.0283.0088.0518.0254.0693.0176.0181.0371.0269.0605.0269.0264,0,.0586-.0142.0957-.043.1016-.0801.2041-.1938.3076-.3418l.0938.0615c-.1211.1851-.2637.3408-.4277.4673-.1211.0947-.2373.1416-.3477.1416-.0732,0-.1328-.0215-.1787-.0654-.0469-.0435-.0693-.0981-.0693-.1641s.0225-.1758.0664-.3286l.3477-1.1973c.0566-.1958.085-.3188.085-.3687,0-.0391-.0137-.0713-.041-.0962s-.0654-.0371-.1133-.0371c-.0391,0-.1201.0098-.2432.0293v-.1045l.9219-.1494ZM85.2886,13.395c.0752,0,.1377.0254.1895.0771s.0781.1152.0781.1899c0,.0728-.0264.1357-.0791.1885-.0527.0522-.1152.0786-.1885.0786s-.1357-.0264-.1885-.0786c-.0527-.0527-.0791-.1157-.0791-.1885,0-.0747.0264-.1382.0781-.1899s.1143-.0771.1895-.0771Z"/>
      <path class="cls-1" d="M87.5708,14.4555l-.1631.8203h-.0986c-.0088-.2388-.0596-.4126-.1523-.521-.0928-.1089-.208-.1631-.3447-.1631-.1104,0-.1982.0303-.2637.0908-.0645.0605-.0977.1338-.0977.2192,0,.0586.0137.1147.0391.168.0264.0537.082.1284.1699.2246.2314.2529.3809.4434.4482.5718.0684.1284.1016.2495.1016.3633,0,.1855-.0762.3496-.2305.4932s-.3486.2148-.584.2148c-.1279,0-.2764-.0303-.4434-.0908-.0586-.021-.1045-.0317-.1367-.0317-.0801,0-.1406.041-.1816.1226h-.0986l.1631-.8657h.0986c.0107.271.0674.4624.1689.5747.1006.1123.2402.1685.416.1685.1357,0,.2432-.0381.3223-.1138s.1191-.1689.1191-.2793c0-.0713-.0146-.1372-.043-.1978-.0498-.1069-.1543-.2544-.3145-.4434-.1592-.189-.2617-.3306-.3066-.4248-.0459-.0942-.0684-.189-.0684-.2832,0-.1729.0625-.3188.1885-.438.126-.1196.2871-.1792.4854-.1792.0566,0,.1084.0044.1543.0132.0254.0054.083.0254.1748.0601.0918.0352.1533.0522.1836.0522.0762,0,.1406-.042.1924-.1255h.1016Z"/>
      <path class="cls-1" d="M89.8276,16.291c-.1855.2227-.3721.3862-.5605.4902-.1895.1045-.3887.1562-.5986.1562-.2529,0-.4502-.0713-.5918-.2134-.1416-.1426-.2129-.334-.2129-.5747,0-.2725.0762-.5405.2285-.8042s.3574-.4775.6143-.6426c.2578-.1646.5107-.2471.7578-.2471.1943,0,.3398.0405.4355.1216.0967.0811.1445.1802.1445.2979,0,.1104-.0342.2051-.1016.2832-.0498.0605-.1113.0908-.1846.0908-.0557,0-.1016-.0176-.1377-.0532s-.0547-.0806-.0547-.1338c0-.0337.0068-.0649.0205-.0933.0127-.0288.04-.063.082-.103s.0674-.0688.0762-.0869c.0088-.0176.0137-.0366.0137-.0562,0-.0376-.0166-.0684-.0508-.0933-.0518-.0356-.125-.0537-.2188-.0537-.1748,0-.3477.0615-.5186.1846-.1709.1226-.3174.2974-.4385.5234-.1455.2744-.2188.5488-.2188.8232,0,.1816.0518.3252.1553.4312.1025.106.2432.1592.4219.1592.1367,0,.2725-.0342.4072-.103.1348-.0684.2852-.1929.4531-.3726l.0771.0693Z"/>
      <path class="cls-1" d="M92.6733,15.2919c0,.2671-.0713.5317-.2129.7935s-.3389.4692-.5918.6226-.498.2295-.7373.2295c-.2441,0-.4424-.0776-.5967-.2334-.1543-.1562-.2314-.3579-.2314-.6055,0-.2617.0752-.5244.2256-.7881s.3525-.4722.6045-.6255c.252-.1528.4951-.2295.7305-.2295s.4287.0776.5811.2324.2285.3564.2285.604ZM92.23,15.1074c0-.1655-.041-.2925-.1221-.3809-.0811-.0879-.1855-.1323-.3135-.1323-.2617,0-.5029.1875-.7227.5625-.2207.375-.3301.748-.3301,1.1182,0,.1694.043.2998.1279.3916.0859.0918.1934.1377.3232.1377.251,0,.4873-.1865.707-.5601.2197-.373.3301-.752.3301-1.1367Z"/>
      <path class="cls-1" d="M94.9634,13.2504h1.5312l-.0293.0991c-.1572.0034-.2686.0181-.3359.0439-.0664.0259-.123.0718-.1709.1377-.0469.0659-.0967.188-.1475.3657l-.3721,1.2827c-.0654.228-.1045.3774-.1172.4487-.0215.1143-.0322.2202-.0322.3179,0,.2158.0801.3979.2402.5464.1602.1489.375.2231.6445.2231.1758,0,.334-.0332.4727-.1001s.2578-.1602.3564-.2808c.0986-.1201.1895-.2832.2715-.4888s.1543-.4136.2158-.624l.3213-1.106c.0801-.2759.1201-.4561.1201-.5396,0-.0591-.0273-.1094-.082-.1514-.0537-.0415-.1641-.0669-.3291-.0757l.0293-.0991h1.1514l-.0293.0991c-.1357,0-.2334.0127-.293.0386s-.1113.0723-.1562.1387c-.0449.0669-.0947.1968-.1494.3892l-.3926,1.3438c-.127.4365-.2461.7583-.3584.9658s-.2744.3813-.4873.521-.4775.21-.792.21c-.3643,0-.6572-.103-.8799-.3086-.2227-.2061-.334-.4414-.334-.707,0-.105.0098-.2173.0303-.3364.0137-.0786.0488-.2139.1035-.4062l.3584-1.2314c.0498-.1782.0742-.3091.0742-.3931,0-.0659-.0254-.1172-.0762-.1533-.0498-.0366-.1777-.0605-.3828-.0708l.0264-.0991Z"/>
      <path class="cls-1" d="M98.2358,16.9565l.2998-1.3442h.0908c-.0127.1304-.0186.2378-.0186.3232,0,.2441.0771.4429.2334.5962.1562.1528.3594.2295.6104.2295.2334,0,.4111-.0718.5322-.2148.1211-.1436.1816-.3086.1816-.4956,0-.1211-.0283-.2319-.083-.3315-.084-.1479-.3076-.4077-.6709-.7803-.1758-.1777-.2891-.3105-.3389-.3979-.082-.144-.123-.2954-.123-.4541,0-.2529.0938-.4692.2832-.6494.1885-.1797.4307-.27.7266-.27.0996,0,.1943.0103.2832.0298.0557.0107.1562.0464.3018.1069.1035.0405.1602.063.1709.0664.0254.0054.0527.0083.083.0083.0518,0,.0967-.0137.1338-.04.0371-.0269.0811-.084.1309-.1714h.1016l-.2783,1.2026h-.0908c.0078-.1069.0107-.1934.0107-.2593,0-.2153-.0713-.3916-.2139-.5288s-.3301-.2061-.5635-.2061c-.1855,0-.3359.0547-.4512.1631-.1162.1089-.1738.2344-.1738.377,0,.1245.0371.2432.1104.3564.0742.1133.2441.2974.5107.5532.2666.2554.4385.4551.5166.5981.0791.1436.1182.2964.1182.4585,0,.1836-.0488.3613-.1455.5332-.0977.1719-.2363.3047-.418.3994-.1826.0942-.3809.1416-.5967.1416-.1064,0-.2061-.0098-.2988-.0298-.0928-.0195-.2402-.0674-.4434-.144-.0693-.0269-.1279-.04-.1738-.04-.1055,0-.1875.0713-.2461.2139h-.1016Z"/>
      <path class="cls-1" d="M103.7534,13.1674l-.2744,3.0142c-.0146.1406-.0215.2334-.0215.2778,0,.0713.0127.1255.04.1631.0332.0513.0791.0898.1377.1147.0576.0249.1553.0376.292.0376l-.0293.0986h-1.4268l.0293-.0986h.0615c.1162,0,.21-.0254.2832-.0752.0518-.0337.0918-.0898.1201-.168.0195-.0552.0391-.1855.0566-.3901l.043-.4595h-1.0371l-.3691.4995c-.083.1123-.1357.1929-.1572.2417s-.0322.0947-.0322.1377c0,.0571.0234.106.0693.147.0469.041.123.063.2305.0669l-.0293.0986h-1.0723l.0293-.0986c.1328-.0054.248-.0498.3496-.1323.1006-.083.25-.2598.4502-.5303l2.1641-2.9448h.0928ZM103.2251,14.0576l-1.0508,1.4292h.9111l.1396-1.4292Z"/>
    </g>
    <g class="cls-3">
      <path class="cls-4" d="M61.3813,24.5888v-2.5527h.5088l.6035,1.8076c.0557.168.0967.2939.1221.3779.0293-.0928.0742-.2295.1357-.4092l.6113-1.7764h.4551v2.5527h-.3262v-2.1367l-.7412,2.1367h-.3057l-.7383-2.1738v2.1738h-.3252Z"/>
      <path class="cls-4" d="M64.2075,24.5888l.9805-2.5527h.3643l1.0449,2.5527h-.3848l-.2979-.7734h-1.0684l-.2803.7734h-.3584ZM64.9438,23.54h.8662l-.2666-.707c-.0811-.2148-.1416-.3906-.1816-.5293-.0322.1641-.0781.3262-.1377.4883l-.2803.748Z"/>
      <path class="cls-4" d="M66.9917,24.5888v-2.5527h.8789c.1982,0,.3506.0117.4551.0361.1455.0342.2705.0947.374.1826.1348.1143.2354.2598.3018.4365.0674.1768.1006.3799.1006.6074,0,.1934-.0225.3652-.0684.5146-.0449.1504-.1025.2744-.1738.3721-.0703.0986-.1484.1758-.2324.2314-.084.0566-.1855.0996-.3047.1279-.1191.0293-.2559.0439-.4102.0439h-.9209ZM67.3296,24.2871h.5449c.168,0,.2998-.0156.3955-.0469.0967-.0312.1729-.0752.2295-.1318.0801-.0801.1426-.1885.1875-.3232.0439-.1357.0664-.2988.0664-.4922,0-.2666-.0439-.4717-.1309-.6152-.0879-.1436-.1943-.2393-.3203-.2881-.0898-.0352-.2363-.0527-.4365-.0527h-.5361v1.9502Z"/>
      <path class="cls-4" d="M69.6987,24.5888v-2.5527h1.8457v.3008h-1.5078v.7822h1.4121v.2998h-1.4121v.8682h1.5674v.3018h-1.9053Z"/>
      <path class="cls-4" d="M73.3696,24.5888v-2.5527h.3379v2.5527h-.3379Z"/>
      <path class="cls-4" d="M74.4233,24.5888v-2.5527h.3467l1.3408,2.0039v-2.0039h.3242v2.5527h-.3467l-1.3408-2.0059v2.0059h-.3242Z"/>
      <path class="cls-4" d="M80.0649,23.6933l.3379.0859c-.0703.2773-.1982.4893-.3818.6348-.1846.1455-.4092.2188-.6748.2188-.2754,0-.499-.0566-.6719-.1689-.1719-.1113-.3037-.2734-.3936-.4863s-.1348-.4404-.1348-.6846c0-.2656.0508-.498.1523-.6953.1016-.1982.2461-.3486.4336-.4512s.3936-.1543.6191-.1543c.2559,0,.4707.0654.6445.1953s.2949.3125.3643.5479l-.333.0791c-.0596-.1855-.1455-.3213-.2578-.4062s-.2539-.127-.4248-.127c-.1963,0-.3604.0469-.4922.1406-.1318.0947-.2246.2207-.2773.3789-.0537.1592-.0801.3223-.0801.4902,0,.2178.0312.4072.0947.5693s.1611.2822.2949.3623c.1338.0811.2783.1211.4336.1211.1895,0,.3496-.0547.4805-.1641.1318-.1094.2207-.2715.2666-.4863Z"/>
      <path class="cls-4" d="M80.9546,24.5888v-2.5527h.3379v1.0479h1.3271v-1.0479h.3379v2.5527h-.3379v-1.2031h-1.3271v1.2031h-.3379Z"/>
      <path class="cls-4" d="M83.7026,24.5888v-2.5527h.3379v2.5527h-.3379Z"/>
      <path class="cls-4" d="M84.7573,24.5888v-2.5527h.3467l1.3408,2.0039v-2.0039h.3242v2.5527h-.3467l-1.3408-2.0059v2.0059h-.3242Z"/>
      <path class="cls-4" d="M87.1812,24.5888l.9805-2.5527h.3633l1.0449,2.5527h-.3848l-.2979-.7734h-1.0674l-.2803.7734h-.3584ZM87.9175,23.54h.8652l-.2656-.707c-.082-.2148-.1426-.3906-.1816-.5293-.0322.1641-.0781.3262-.1377.4883l-.2803.748Z"/>
    </g>
  </g>
  <line class="cls-5" x1="51.5671" y1=".075" x2="51.5671" y2="28.8619"/>
</svg>